<svg width="86" height="35" viewBox="0 0 86 35" fill="none" xmlns="http://www.w3.org/2000/svg">
<g id="Trybe">
<path d="M15.3998 3.75596H8.24337L8.74853 2.5941V26.7574H6.67738V2.5941L7.28357 3.75596H0.0261536V1.92056H15.3998V3.75596Z" fill="#003BE5"/>
<path d="M17.7843 26.7574V8.87488H19.8722V14.1454L19.1313 13.9096C19.1987 13.3483 19.3615 12.7646 19.6197 12.1584C19.8891 11.541 20.2595 10.9629 20.731 10.424C21.2025 9.8852 21.7918 9.45301 22.499 9.12746C23.2175 8.79069 24.0706 8.6223 25.0585 8.6223C25.777 8.6223 26.3551 8.68405 26.7929 8.80753C27.2307 8.93101 27.5057 9.02643 27.618 9.09378L27.0455 11.1144C26.9332 11.0358 26.7031 10.9348 26.3551 10.8113C26.0071 10.6878 25.5075 10.6261 24.8564 10.6261C23.9135 10.6261 23.1221 10.8113 22.4822 11.1818C21.8423 11.541 21.3316 12.0125 20.9499 12.5962C20.5682 13.1799 20.2932 13.803 20.1248 14.4653C19.9564 15.1164 19.8722 15.745 19.8722 16.3512V26.7574H17.7843Z" fill="#003BE5"/>
<path d="M31.2056 34.2337C30.7903 34.2337 30.4086 34.2057 30.0606 34.1496C29.7238 34.1046 29.5105 34.0597 29.4207 34.0148V32.1794C29.5667 32.2468 29.8024 32.3029 30.128 32.3478C30.4647 32.404 30.7847 32.432 31.0878 32.432C31.8623 32.432 32.5022 32.2524 33.0074 31.8932C33.5237 31.5452 33.9503 31.0793 34.2871 30.4956C34.6239 29.9119 34.9101 29.2832 35.1459 28.6097L35.7689 26.8079L29.4881 8.87488H31.6771L37.0654 24.8883H36.7624L42.0833 8.87488H44.2218L37.4191 28.5086C37.0823 29.4853 36.6782 30.4114 36.2067 31.287C35.7352 32.1626 35.1066 32.8698 34.3208 33.4087C33.535 33.9587 32.4966 34.2337 31.2056 34.2337Z" fill="#003BE5"/>
<path d="M56.4892 27.0774C55.1197 27.0774 53.8512 26.7462 52.6837 26.0839C51.5163 25.4216 50.5733 24.5235 49.8549 23.3897C49.1476 22.2559 48.794 20.9818 48.794 19.5674C48.794 19.5337 48.794 19.5056 48.794 19.4832C48.794 19.4607 48.794 19.4383 48.794 19.4158L50.3432 19.3821C50.3432 19.4046 50.3432 19.427 50.3432 19.4495C50.3432 19.4719 50.3432 19.4944 50.3432 19.5169C50.3432 20.5272 50.6126 21.4589 51.1514 22.312C51.7015 23.1652 52.4199 23.8444 53.3068 24.3495C54.2048 24.8547 55.1758 25.1073 56.2198 25.1073C57.9486 25.1073 59.3686 24.4955 60.48 23.2718C61.6026 22.037 62.1638 20.2185 62.1638 17.8162C62.1638 15.4026 61.6082 13.5841 60.4968 12.3605C59.3855 11.1369 57.9598 10.5251 56.2198 10.5251C55.1758 10.5251 54.2048 10.7776 53.3068 11.2828C52.4199 11.788 51.7015 12.4615 51.1514 13.3034C50.6126 14.1454 50.3432 15.0771 50.3432 16.0986L48.794 16.0481C48.794 14.6337 49.1476 13.3652 49.8549 12.2426C50.5733 11.12 51.5163 10.2388 52.6837 9.59894C53.8512 8.94785 55.1197 8.6223 56.4892 8.6223C57.9374 8.6223 59.2508 8.98153 60.4295 9.69997C61.6194 10.4072 62.5623 11.4456 63.2583 12.8151C63.9543 14.1846 64.3023 15.8517 64.3023 17.8162C64.3023 19.8031 63.9543 21.487 63.2583 22.8677C62.5736 24.2485 61.6418 25.2981 60.4631 26.0165C59.2844 26.7238 57.9598 27.0774 56.4892 27.0774ZM48.2384 26.7574V0.438766H50.3432V26.7574H48.2384Z" fill="#003BE5"/>
<path d="M69.6249 18.6918V16.8227H84.106L83.7019 17.3952C83.7019 17.3278 83.7019 17.2717 83.7019 17.2268C83.7019 17.1707 83.7019 17.1145 83.7019 17.0584C83.7019 15.9022 83.455 14.8245 82.961 13.8254C82.4671 12.8263 81.7487 12.0237 80.8057 11.4175C79.874 10.8113 78.7346 10.5082 77.3875 10.5082C76.0179 10.5082 74.8112 10.8225 73.7672 11.4512C72.7232 12.0686 71.9093 12.9274 71.3256 14.0275C70.7419 15.1164 70.45 16.3849 70.45 17.833C70.45 19.2923 70.7362 20.5777 71.3088 21.689C71.8925 22.7891 72.7064 23.6479 73.7503 24.2653C74.7943 24.8715 76.0123 25.1746 77.4043 25.1746C78.4258 25.1746 79.3127 25.0511 80.0648 24.8042C80.8281 24.546 81.4568 24.2092 81.9507 23.7938C82.4559 23.3785 82.8375 22.9407 83.0957 22.4804C83.3652 22.009 83.5223 21.5655 83.5672 21.1502H85.6384C85.5935 21.8125 85.3802 22.4917 84.9985 23.1877C84.6281 23.8724 84.0948 24.5123 83.3988 25.1073C82.7141 25.7022 81.8609 26.1849 80.8394 26.5554C79.8291 26.9146 78.6616 27.0942 77.337 27.0942C75.6082 27.0942 74.0703 26.7013 72.7232 25.9155C71.3873 25.1297 70.3321 24.0464 69.5575 22.6657C68.7942 21.2737 68.4125 19.674 68.4125 17.8667C68.4125 16.0481 68.7998 14.4484 69.5744 13.0677C70.349 11.6757 71.4098 10.5868 72.7569 9.801C74.104 9.0152 75.6363 8.6223 77.3538 8.6223C79.105 8.6223 80.6205 9.02082 81.9002 9.81784C83.1799 10.6149 84.1678 11.6981 84.8638 13.0677C85.5598 14.426 85.9078 15.9527 85.9078 17.6478C85.9078 17.7937 85.9022 17.9789 85.8909 18.2034C85.8909 18.428 85.8853 18.5907 85.8741 18.6918H69.6249Z" fill="#003BE5"/>
</g>
</svg>
