<svg width="113" height="28" viewBox="0 0 113 28" fill="none" xmlns="http://www.w3.org/2000/svg">
<g id="Wallet">
<path d="M3.5682 26.7574L0.133133 1.92056H7.12113L9.27647 25.6966L8.31667 25.6461L11.8023 1.92056H20.1037L23.5724 25.6461L22.6126 25.6966L24.7679 1.92056H31.7559L28.3209 26.7574H17.9315L15.6246 6.33226H16.2981L13.9744 26.7574H3.5682Z" fill="#2FC18C"/>
<path d="M39.5727 27.1616C38.293 27.1616 37.148 26.9595 36.1376 26.5554C35.1273 26.14 34.3303 25.5451 33.7466 24.7705C33.1628 23.9847 32.871 23.0305 32.871 21.9079C32.871 20.5833 33.247 19.5168 33.9991 18.7086C34.7625 17.9003 35.7335 17.2885 36.9122 16.8732C38.1021 16.4578 39.3314 16.194 40.5999 16.0818C42.4072 15.9134 43.6252 15.7675 44.2538 15.644C44.8825 15.5205 45.1968 15.3016 45.1968 14.9873C45.1968 14.9761 45.1968 14.9704 45.1968 14.9704C45.1968 14.5551 44.9442 14.2015 44.4391 13.9096C43.9451 13.6065 43.2828 13.455 42.4521 13.455C41.554 13.455 40.8861 13.6234 40.4483 13.9601C40.0105 14.2857 39.7916 14.7628 39.7916 15.3914H33.1067C33.1067 13.8872 33.5277 12.6243 34.3696 11.6027C35.2115 10.5812 36.3397 9.81223 37.7541 9.29585C39.1798 8.76824 40.7626 8.50443 42.5026 8.50443C44.1528 8.50443 45.6963 8.7514 47.1332 9.24533C48.5813 9.73926 49.7544 10.497 50.6525 11.5185C51.5505 12.5288 51.9996 13.8254 51.9996 15.4082C51.9996 15.644 51.9996 15.8797 51.9996 16.1155C51.9996 16.3512 51.9996 16.5869 51.9996 16.8227V22.3626C51.9996 22.8565 52.0108 23.3336 52.0332 23.7938C52.0557 24.2541 52.123 24.6807 52.2353 25.0736C52.3588 25.4889 52.5216 25.8481 52.7236 26.1512C52.9257 26.4431 53.0885 26.6452 53.2119 26.7574H46.5775C46.4765 26.6564 46.3306 26.4712 46.1397 26.2018C45.9489 25.9323 45.7917 25.6236 45.6683 25.2756C45.4999 24.7705 45.3764 24.299 45.2978 23.8612C45.2305 23.4122 45.1968 22.8677 45.1968 22.2279L46.6786 23.255C46.3755 24.0745 45.8591 24.7761 45.1294 25.3598C44.411 25.9436 43.5634 26.3926 42.5868 26.7069C41.6214 27.01 40.6167 27.1616 39.5727 27.1616ZM41.5933 22.3457C42.1771 22.3457 42.7496 22.2166 43.3109 21.9584C43.8834 21.7002 44.3605 21.2737 44.7421 20.6787C45.1238 20.0725 45.3147 19.253 45.3147 18.2203V17.5804L47.049 18.978C46.3081 19.2362 45.483 19.4551 44.5738 19.6347C43.6645 19.8031 42.7945 19.9322 41.9638 20.022C41.1892 20.1006 40.6111 20.2297 40.2294 20.4093C39.859 20.5777 39.6737 20.8527 39.6737 21.2344C39.6737 21.6161 39.8421 21.8967 40.1789 22.0763C40.5157 22.2559 40.9871 22.3457 41.5933 22.3457Z" fill="#2FC18C"/>
<path d="M62.1406 0.438766V26.7574H55.4557V0.438766H62.1406Z" fill="#2FC18C"/>
<path d="M72.5331 0.438766V26.7574H65.8482V0.438766H72.5331Z" fill="#2FC18C"/>
<path d="M78.716 19.6684V15.6271H89.257L88.7518 16.5027C88.7518 16.4129 88.7518 16.3175 88.7518 16.2165C88.7518 16.1042 88.7518 16.0088 88.7518 15.9302C88.7518 15.5486 88.6396 15.1557 88.415 14.7515C88.2018 14.3362 87.8482 13.9882 87.3542 13.7075C86.8715 13.4269 86.2204 13.2866 85.4009 13.2866C84.6039 13.2866 83.936 13.455 83.3972 13.7917C82.8583 14.1285 82.4542 14.6281 82.1848 15.2904C81.9154 15.9415 81.7807 16.7385 81.7807 17.6814C81.7807 18.6693 81.9097 19.5112 82.1679 20.2072C82.4261 20.9032 82.8359 21.4364 83.3972 21.8069C83.9584 22.1661 84.6937 22.3457 85.603 22.3457C86.1418 22.3457 86.6021 22.3064 86.9838 22.2279C87.3654 22.1493 87.6685 22.0482 87.8931 21.9248C88.1288 21.8013 88.3028 21.6666 88.415 21.5206C88.5385 21.3747 88.6115 21.2344 88.6339 21.0997H95.3357C95.2571 21.8855 94.9709 22.6432 94.4769 23.3729C93.9942 24.1026 93.3263 24.7593 92.4731 25.343C91.62 25.9155 90.5928 26.3701 89.3917 26.7069C88.1905 27.0325 86.8322 27.1952 85.3167 27.1952C83.2175 27.1952 81.399 26.8023 79.8611 26.0165C78.3231 25.2195 77.1388 24.1194 76.3081 22.7162C75.4774 21.3017 75.0621 19.6796 75.0621 17.8498C75.0621 15.9751 75.4886 14.3362 76.3418 12.933C77.195 11.5298 78.3905 10.4409 79.9284 9.66629C81.4776 8.89172 83.2737 8.50443 85.3167 8.50443C87.4272 8.50443 89.2458 8.90295 90.7724 9.69997C92.3104 10.4858 93.4947 11.6083 94.3254 13.0677C95.1561 14.5158 95.5714 16.2389 95.5714 18.2371C95.5714 18.5739 95.5658 18.8601 95.5546 19.0959C95.5434 19.3316 95.5265 19.5225 95.5041 19.6684H78.716Z" fill="#2FC18C"/>
<path d="M107.958 27.1952C107.183 27.1952 106.364 27.1335 105.499 27.01C104.646 26.8978 103.844 26.6564 103.091 26.2859C102.339 25.9155 101.727 25.3598 101.256 24.6189C100.785 23.8668 100.549 22.8621 100.549 21.6048C100.549 21.3466 100.549 21.0884 100.549 20.8303C100.549 20.5721 100.549 20.3195 100.549 20.0725V13.9264H96.5581V8.87488H96.6423C97.5179 8.87488 98.2139 8.83559 98.7302 8.75701C99.2578 8.67843 99.6507 8.48759 99.9089 8.1845C100.167 7.88141 100.336 7.40432 100.414 6.75322C100.504 6.10213 100.549 5.20408 100.549 4.05906V3.01507H107.352V8.87488H112.285V13.9264H107.352V18.8601C107.352 19.0285 107.352 19.1969 107.352 19.3653C107.352 19.5225 107.352 19.6852 107.352 19.8536C107.352 20.5047 107.43 21.0548 107.587 21.5038C107.744 21.9528 108.165 22.1773 108.85 22.1773C109.254 22.1773 109.636 22.1381 109.995 22.0595C110.354 21.9809 110.624 21.9023 110.803 21.8237V26.7238C110.545 26.836 110.169 26.9427 109.675 27.0437C109.193 27.1447 108.62 27.1952 107.958 27.1952Z" fill="#2FC18C"/>
</g>
</svg>
